# xmcd
#
# Track frame offsets:
# 150
# 13893
# 25348
# 39194
# 52488
# 64199
# 81628
# 97626
# 117685
# 135973
#
# Disc length: 2006 seconds
#
#
# Revision: 2
# Processed by: cddbd v1.5.2PL0 Copyright (c) Steve Scherf et al.
# Submitted via: FreeRIP 2.945 
#
DISCID=8707d40a
DTITLE=Townes Van Zandt - Flyin' Shoes
DYEAR=1978
DGENRE=Folk
TTITLE0=Dollar Bill Blues
TTITLE1=Rex's Blues
TTITLE2=Pueblo Waltz
TTITLE3=Brother Flower
TTITLE4=Snake Song
TTITLE5=Loretta
TTITLE6=No Place to Fall
TTITLE7=Flyin' Shoes
TTITLE8=Who Do You Love
TTITLE9=When She Don't Need Me
EXTD=
EXTT0=
EXTT1=
EXTT2=
EXTT3=
EXTT4=
EXTT5=
EXTT6=
EXTT7=
EXTT8=
EXTT9=
PLAYORDER=
